<svg 
 xmlns="http://www.w3.org/2000/svg"
 xmlns:xlink="http://www.w3.org/1999/xlink"
 width="106px" height="28px">
<path fill-rule="evenodd"  fill="rgb(255, 255, 255)"
 d="M105.988,11.349 L102.753,8.749 L84.681,8.749 L84.681,10.499 L102.404,10.499 L102.404,13.148 L84.681,13.148 L84.681,14.898 L102.404,14.898 L102.404,17.498 L84.681,17.498 L84.681,19.248 L104.146,19.248 C105.142,19.248 105.939,20.048 105.939,20.998 L105.939,21.898 L86.922,21.898 L82.640,25.397 L99.765,25.397 L99.765,27.997 L79.404,27.997 L79.404,23.997 L82.192,21.798 L77.612,21.798 L77.612,19.198 L81.147,19.198 L81.147,9.749 L85.578,6.099 L99.517,6.099 L97.376,4.349 L87.718,4.349 L90.904,1.750 L104.196,1.750 C105.192,1.750 105.988,2.549 105.988,3.500 L105.988,4.349 L102.056,4.349 L105.988,7.399 L105.988,11.349 ZM89.511,1.800 L86.324,4.399 L86.225,4.399 L84.084,6.149 L84.234,6.149 L81.196,8.649 L81.147,8.499 L77.612,11.399 L77.612,7.449 L81.545,4.399 L77.612,4.399 L77.612,1.800 L84.881,1.800 L87.120,0.050 L91.601,0.050 L89.461,1.800 L89.511,1.800 ZM67.656,14.598 L72.335,15.599 L72.335,18.798 L60.288,16.198 L67.656,14.598 ZM68.801,4.349 L48.440,4.349 L48.440,1.750 L55.958,1.750 L55.958,0.000 L58.147,0.000 C59.143,0.000 59.940,0.800 59.940,1.750 L70.543,1.750 C71.539,1.750 72.335,2.549 72.335,3.500 L72.335,5.649 L68.801,5.649 L68.801,4.349 ZM44.009,1.750 L47.543,1.750 L47.543,4.399 L47.543,5.699 L44.009,5.699 L44.009,1.750 ZM27.976,19.010 L19.998,18.998 L19.998,14.998 L15.998,14.998 L15.998,6.999 L19.998,6.999 L19.998,2.998 L27.998,2.998 L27.998,6.999 L31.998,6.999 L31.998,14.998 L27.998,14.998 L27.976,19.010 ZM7.998,27.999 L-0.002,27.999 C-0.002,20.730 2.338,15.268 4.998,11.998 C1.150,8.887 -0.002,4.645 -0.002,-0.002 L7.998,-0.002 C7.998,7.604 11.038,6.999 13.998,6.999 L13.998,14.998 C12.680,15.565 7.998,18.602 7.998,27.999 ZM27.998,27.999 L19.998,27.999 L19.998,20.998 L27.998,20.998 L27.998,27.999 ZM47.992,13.549 L54.613,11.799 L58.097,12.549 L66.113,10.799 L66.113,9.149 L50.182,9.149 L50.182,11.749 L46.647,11.749 L46.647,6.500 L67.905,6.500 C68.900,6.500 69.697,7.299 69.697,8.249 L69.697,12.199 L69.697,13.248 L68.154,13.598 L68.154,13.549 L58.247,15.749 L44.009,18.798 L44.009,15.599 L50.680,14.149 L47.992,13.549 ZM48.440,22.348 L48.440,25.397 L48.440,27.997 L44.905,27.997 L44.905,19.748 L48.440,19.748 L48.440,22.348 ZM71.439,21.448 L71.439,27.997 L49.335,27.997 L49.335,25.347 L67.905,25.347 L67.905,22.298 L49.335,22.298 L49.335,19.698 L69.697,19.698 C70.643,19.648 71.439,20.448 71.439,21.448 ZM104.196,26.247 L104.196,27.997 L100.661,27.997 L100.661,24.498 L102.454,24.498 C103.400,24.498 104.196,25.247 104.196,26.247 Z"/>
</svg>