<?xml version="1.0" encoding="utf-8"?>
<!-- Generator: Adobe Illustrator 23.0.0, SVG Export Plug-In . SVG Version: 6.00 Build 0)  -->
<svg version="1.1" id="图层_1" xmlns="http://www.w3.org/2000/svg" xmlns:xlink="http://www.w3.org/1999/xlink" x="0px" y="0px"
	 viewBox="0 0 128 128" style="enable-background:new 0 0 128 128;" xml:space="preserve">
<style type="text/css">
	.st0{fill:#FFDD67;}
	.st1{fill:#664E27;}
	.st2{fill:#FFFFFF;}
	.st3{fill:#D8A941;}
	.st4{fill:#EABE42;}
</style>
<g>
	<g>
		<circle class="st0" cx="66.11" cy="55.07" r="54.57"/>
		<path class="st1" d="M95.03,61.07c-6,0-17.64,0-28.92,0s-22.92,0-28.92,0c-1.27,0-2,0.91-2,1.82c0,13.28,10.91,27.29,30.92,27.29
			s30.92-14.01,30.92-27.29C97.03,61.98,96.31,61.07,95.03,61.07"/>
		<path class="st1" d="M58.65,44.88c-3.46-7.46-8.55-11.1-13.64-11.1s-10.19,3.64-13.64,11.1c-0.36,0.73,1.46,2.18,2.36,1.46
			c3.27-2.73,7.28-3.82,11.28-3.82s8,1.09,11.28,3.82C57.2,47.07,59.02,45.61,58.65,44.88"/>
		<path class="st1" d="M100.13,44.88c-3.46-7.46-8.55-11.1-13.64-11.1c-5.09,0-10.19,3.64-13.64,11.1
			c-0.36,0.73,1.46,2.18,2.36,1.46c3.27-2.73,7.28-3.82,11.28-3.82c4,0,8,1.09,11.28,3.82C98.67,47.07,100.49,45.61,100.13,44.88"/>
		<g>
			<path class="st2" d="M66.11,77.83c-11.04,0-20.47-2.7-24.33-6.53c1.62,8,11.89,14.17,24.33,14.17s22.71-6.17,24.33-14.17
				C86.58,75.13,77.15,77.83,66.11,77.83z"/>
			<path class="st2" d="M40.19,65.78c1.82,5.02,12.73,8.88,25.92,8.88s24.1-3.86,25.92-8.88H40.19z"/>
		</g>
		<g>
			<path class="st3" d="M104.84,55.36c0,0,4.39,2.48,2.72,7.26"/>
			<path class="st3" d="M109.24,54.8c0,0,3.51,1.98,2.18,5.8"/>
			<path class="st3" d="M27.38,55.36c0,0-4.39,2.48-2.72,7.26"/>
			<path class="st3" d="M22.98,54.8c0,0-3.51,1.98-2.18,5.8"/>
		</g>
	</g>
	<g>
		<path class="st4" d="M32.67,82.44c-3.68-4.29-6.3-1.88-10.94,4.43c-6.35,8.71-4.23,17.01-9.6,26.36
			c-2.2,4.24-4.14,11.61-4.8,14.27h17.94c0.51-0.87,1.19-1.93,1.72-2.37c3.32-2.2,7.92-10.87,5.69-21.72
			C30.52,92.94,36.39,89.67,32.67,82.44z"/>
		<path class="st4" d="M47.28,82.44c3.68-4.29,6.3-1.88,10.94,4.43c6.35,8.71,4.23,17.01,9.6,26.36c2.2,4.24,4.14,11.61,4.8,14.27
			H54.69c-0.51-0.87-1.19-1.93-1.72-2.37c-3.32-2.2-7.92-10.87-5.69-21.72C49.43,92.94,43.56,89.67,47.28,82.44z"/>
	</g>
</g>
</svg>
