<?xml version="1.0" encoding="utf-8"?>
<!-- Generator: Adobe Illustrator 23.0.0, SVG Export Plug-In . SVG Version: 6.00 Build 0)  -->
<svg version="1.1" id="图层_1" xmlns="http://www.w3.org/2000/svg" xmlns:xlink="http://www.w3.org/1999/xlink" x="0px" y="0px"
	 viewBox="0 0 128 128" style="enable-background:new 0 0 128 128;" xml:space="preserve">
<style type="text/css">
	.st0{fill:#EBA352;}
	.st1{fill:#FFC95C;}
	.st2{fill:#36B268;}
</style>
<g>
	<path class="st0" d="M16.99,113.96l3.68-0.79c0,0,2.57,1.71,10.3,1.28c7.72-0.43,11.58-1.71,17.16-5.55
		c5.58-3.84,9.01-3.41,9.01-3.41l-2.57-3.41l-8.58,3.41c0,0-17.59,5.98-21.02,5.55c-3.43-0.43-5.15-1.71-5.15-1.71l-4.29,1.28
		l-0.86,2.56l0.86,1.28L16.99,113.96z"/>
	<path class="st0" d="M48.13,39.75c0,0-3-3.41-5.58-9.82c-1.16-2.89-3-8.96-2.15-11.95s3.86-5.55,6.44-6.4s3,1.71,4.72,4.7
		c0,0-0.82-1.53-2.57-1.28c-3,0.43-6.86,2.13-5.58,7.26c1.32,5.24,6.01,13.66,6.01,13.66L48.13,39.75z"/>
	<path class="st1" d="M116.01,83.59c0,0-25.54-25.41-35.76-33.04S51.5,15.42,49.6,12.43s-10.22,1.2-5.11,13.91L49.6,36.5
		c0,0-5.11,5.08,2.55,12.71s17.88,22.87,20.44,30.5c2.55,7.62,12.77,27.95,22.99,30.5s20.44,2.54,20.44,2.54V83.59z"/>
	<path class="st0" d="M49.41,36.76c0,0,0.86-1.71,3.43-1.28c2.57,0.43,17.59,20.49,20.17,21.34c2.57,0.85,3.05-0.34,1.72-1.71
		C61,41.03,58.45,36.73,54.56,33.35c-3.43-2.99-11.16,1.71-9.01,8.96c2.15,7.26,4.72,8.54,9.44,14.09s12.44,17.5,15.45,25.18
		c3,7.68,10.73,20.92,14.59,24.76c3.86,3.84,13.73,8.11,26.17,7.68l0.43-1.71c0,0-17.34-0.21-24.03-7.26
		c-7.29-7.68-13.36-21.32-15.02-25.61c-2.15-5.55-9.87-18.78-15.45-24.76S45.98,41.46,49.41,36.76z"/>
	<path class="st0" d="M57.14,54.69c0,0,9.87,9.39,17.16,19.64c7.29,10.24,11.58,14.94,14.16,15.37c2.12,0.35,1.29,1.71,0.43,1.71
		s-4.29-0.85-8.15-5.55S66.15,67.07,64,64.51C61.85,61.95,57.14,54.69,57.14,54.69z"/>
	<path class="st2" d="M110.58,77.21c0,0,2.06,20.68,0.19,38.52l16.73-0.85V83.16L110.58,77.21z"/>
	<path class="st0" d="M52.84,104.63c0,0,3.67,4.81,6.01,5.98c0.86,0.43,7.29,1.71,12.44-2.13c5.15-3.84,7.29-14.51,7.29-14.51
		s1.47-6.87,0.86-8.96c-5.58-19.21-18.02-23.05-18.02-23.05l-1.72,0.43c0,0,7.29,36.71,3.43,38.84
		C59.28,103.35,52.84,104.63,52.84,104.63z"/>
	<path class="st1" d="M5.86,84.19c0,0,7.32-2.43,14.65-7.29c7.32-4.86,17.09-17,21.97-17s17.09,2.43,17.09,2.43
		s17.09,12.14,17.09,24.29s-7.32,21.86-12.21,21.86c-3.88,0.43-4.88,0-4.88,0l-4.88-4.86c0,0-2.44,0-9.76,4.86
		s-19.53,4.86-24.41,2.43l-7.32,2.43L5.86,84.19z"/>
	<path class="st2" d="M0.5,84.01v31.72l16.73,0.85c-1.88-17.84,0.19-38.52,0.19-38.52L0.5,84.01z"/>
	<path class="st0" d="M61.43,95.67c-3.43-5.98-5.25-8.64-7.72-11.1c-3.31-3.29-10.44-3.8-13.73-2.56c0,0-3,0.43,0.15,3.19
		c0.15,0.22,0.35,0.47,0.64,0.75c0.63,0.63,1.07,1.39,1.37,2.22c0.81,2.24,0.58,4.94,0.42,6.64c-0.43,4.7-10.3,14.04-14.39,16.11
		c-0.92,0.47-1.49,0.72-1.49,0.72c13.3-2.74,16.83-11.2,18.78-14.01c0.38-0.54,0.65-1.1,0.85-1.66c1.43,2.21,4.38,6.69,6.55,8.66
		c0.86,0.78,3.43,1.28,3.86,1.28l-5.58-6.4l-3.85-6.64c0,0,0.42-2.75,3.85-2.75c3.43,0,6.44,2.56,6.86,3.84s2.15,2.99,2.15,2.99
		S62.3,97.2,61.43,95.67z M48.97,88.36c-0.02,0.01-0.03,0.01-0.05,0.02C48.94,88.37,48.95,88.37,48.97,88.36z"/>
</g>
</svg>
