<?xml version="1.0" encoding="utf-8"?>
<!-- Generator: Adobe Illustrator 23.0.0, SVG Export Plug-In . SVG Version: 6.00 Build 0)  -->
<svg version="1.1" id="图层_1" xmlns="http://www.w3.org/2000/svg" xmlns:xlink="http://www.w3.org/1999/xlink" x="0px" y="0px"
	 viewBox="0 0 128 128" style="enable-background:new 0 0 128 128;" xml:space="preserve">
<style type="text/css">
	.st0{fill:#B7293A;}
	.st1{fill:#FF717F;}
</style>
<g>
	<path class="st0" d="M127.5,83.26c0-5.87-4.27-10.77-9.86-11.75c2.94-3.61,4.66-8.19,4.66-12.94c0-5.81-2.42-11.16-6.5-14.93
		c2.39-2.2,3.9-5.34,3.9-8.78c0-1.66-0.34-3.27-0.97-4.73c3.68-2.04,6.17-5.96,6.17-10.46c0-6.58-5.36-11.94-11.95-11.94h-9.94
		c-1.85-4.28-6.11-7.22-10.98-7.22c-4.87,0-9.14,2.94-10.98,7.22h-9.94c-2.59,0-5.08,0.86-7.11,2.36c-2.03-1.51-4.52-2.36-7.11-2.36
		h-9.94C45.1,3.44,40.84,0.5,35.97,0.5c-4.88,0-9.14,2.94-10.98,7.22h-9.94C8.46,7.72,3.1,13.08,3.1,19.67
		c0,4.49,2.5,8.41,6.18,10.45C8.64,31.59,8.3,33.2,8.3,34.87c0,3.47,1.49,6.62,3.89,8.8C8.12,47.46,5.7,52.82,5.7,58.61
		c0,4.73,1.71,9.29,4.65,12.9C4.76,72.5,0.5,77.4,0.5,83.28c0,4.89,2.96,9.11,7.19,10.95c-2.89,3.58-4.59,8.1-4.59,12.86
		c0,11.26,9.17,20.42,20.44,20.42h24.85c6.12,0,11.78-2.73,15.6-7.28c3.82,4.54,9.48,7.28,15.61,7.28h24.85
		c11.27,0,20.44-9.18,20.44-20.46c0-4.74-1.69-9.25-4.58-12.82C124.54,92.38,127.5,88.16,127.5,83.26z"/>
	<g>
		<path class="st1" d="M15.02,24.49H31.6v5.03H20.47c-2.95,0-5.34,2.29-5.34,5.13v0.02c0,2.83,2.39,5.13,5.34,5.13h32.95
			c2.95,0,5.34-2.29,5.34-5.13v-0.02c0-2.83-2.39-5.13-5.34-5.13H42.3v-5.03h16.58c2.43,0,4.47-1.55,5.12-3.68
			c0.65,2.13,2.7,3.68,5.12,3.68H85.7v5.03H74.58c-2.95,0-5.34,2.29-5.34,5.13v0.02c0,2.83,2.39,5.13,5.34,5.13h32.95
			c2.95,0,5.34-2.29,5.34-5.13v-0.02c0-2.83-2.39-5.13-5.34-5.13H96.4v-5.03h16.58c2.95,0,5.34-2.29,5.34-5.13v-0.02
			c0-2.83-2.39-5.13-5.34-5.13H96.4v-2.14c0-2.83-2.4-5.13-5.35-5.13c-2.95,0-5.35,2.3-5.35,5.13v2.14H69.12
			c-2.43,0-4.47,1.55-5.12,3.68c-0.65-2.13-2.7-3.68-5.12-3.68H42.3v-2.14c0-2.83-2.4-5.13-5.35-5.13c-2.95,0-5.35,2.3-5.35,5.13
			v2.14H15.02c-2.95,0-5.34,2.29-5.34,5.13v0.02C9.68,22.19,12.07,24.49,15.02,24.49z"/>
		<path class="st1" d="M115.71,78.27h-10.14l1.21-7.06c5.17-2.05,8.82-6.93,8.82-12.63v-0.04c0-7.55-6.38-13.67-14.25-13.67H80.76
			c-7.87,0-14.25,6.12-14.25,13.67v0.04c0,5.7,3.64,10.59,8.82,12.63l1.21,7.06H66.4c-0.86,0-3.93,0-4.79,0H51.47l1.21-7.06
			c5.17-2.05,8.82-6.93,8.82-12.63v-0.04c0-7.55-6.38-13.67-14.25-13.67H26.65c-7.87,0-14.25,6.12-14.25,13.67v0.04
			c0,5.7,3.64,10.59,8.82,12.63l1.21,7.06H12.29c-2.95,0-5.34,2.29-5.34,5.13v0.02c0,2.83,2.39,5.13,5.34,5.13H61.6
			c0.86,0,3.93,0,4.79,0h49.31c2.95,0,5.34-2.29,5.34-5.13V83.4C121.05,80.57,118.66,78.27,115.71,78.27z M76.13,58.54
			c0-2.26,1.91-4.1,4.27-4.1h21.3c2.36,0,4.27,1.84,4.27,4.1v0.01c0,2.26-1.91,4.1-4.27,4.1H80.4c-2.36,0-4.27-1.84-4.27-4.1V58.54z
			 M85.14,72.24h11.82l-1.03,6.03h-9.76L85.14,72.24z M22.02,58.54c0-2.26,1.91-4.1,4.27-4.1h21.3c2.36,0,4.27,1.84,4.27,4.1v0.01
			c0,2.26-1.91,4.1-4.27,4.1H26.3c-2.36,0-4.27-1.84-4.27-4.1V58.54z M31.04,72.24h11.82l-1.03,6.03h-9.76L31.04,72.24z"/>
		<path class="st1" d="M104.08,93.67H78.03c-7.05,0-12.88,4.91-14.03,11.36c-1.15-6.45-6.98-11.36-14.03-11.36H23.92
			c-7.87,0-14.25,6.12-14.25,13.67v0.04c0,7.55,6.38,13.67,14.25,13.67h26.05c7.05,0,12.88-4.91,14.03-11.36
			c1.15,6.45,6.98,11.36,14.03,11.36h26.05c7.87,0,14.25-6.12,14.25-13.67v-0.04C118.32,99.79,111.95,93.67,104.08,93.67z
			 M53.74,107.37c0,2.26-1.91,4.1-4.27,4.1H24.43c-2.36,0-4.27-1.84-4.27-4.1v-0.01c0-2.26,1.91-4.1,4.27-4.1h25.03
			c2.36,0,4.27,1.84,4.27,4.1V107.37z M107.84,107.37c0,2.26-1.91,4.1-4.27,4.1H78.54c-2.36,0-4.27-1.84-4.27-4.1v-0.01
			c0-2.26,1.91-4.1,4.27-4.1h25.03c2.36,0,4.27,1.84,4.27,4.1V107.37z"/>
	</g>
</g>
</svg>
