<?xml version="1.0" encoding="utf-8"?>
<!-- Generator: Adobe Illustrator 23.0.0, SVG Export Plug-In . SVG Version: 6.00 Build 0)  -->
<svg version="1.1" id="图层_1" xmlns="http://www.w3.org/2000/svg" xmlns:xlink="http://www.w3.org/1999/xlink" x="0px" y="0px"
	 viewBox="0 0 128 128" style="enable-background:new 0 0 128 128;" xml:space="preserve">
<style type="text/css">
	.st0{fill:#EF5350;}
	.st1{fill:#E84F4F;}
	.st2{fill:#FFDD67;}
	.st3{fill:#E03D3D;}
	.st4{fill:#B7293A;}
</style>
<g>
	<path class="st0" d="M77.36,101.55l0.74-43.22l0-0.2l-0.01-0.01c-0.06-1.26-0.89-2.35-2.08-2.73c-0.02-0.01-0.04-0.01-0.07-0.02
		c-2.42-0.79-6.61-1.36-11.38-1.44l0,0c-4.77-0.08-8.98,0.35-11.43,1.05l-0.07,0.02c-1.2,0.33-2.07,1.4-2.17,2.66l-0.01,0.01l0,0.2
		l-0.74,43.22"/>
	<path class="st1" d="M50.13,100.93c-0.04,2.19,6.03,4.06,13.55,4.19c7.52,0.12,13.65-1.55,13.69-3.74
		c0.04-2.19-6.03-4.06-13.55-4.19C56.3,97.07,50.17,98.74,50.13,100.93L50.13,100.93z M50.13,100.93"/>
	<path class="st2" d="M50.29,93.27c0.04-2.19,6.17-3.85,13.68-3.71c7.52,0.14,13.58,2.02,13.54,4.21l-0.09,4.78
		c0.04-2.19-6.02-4.07-13.54-4.21c-7.52-0.14-13.64,1.52-13.68,3.71L50.29,93.27z M50.2,98.05"/>
	<path class="st3" d="M53.64,72.77"/>
	<polygon class="st4" points="77.72,77.64 77.65,81.22 58.82,66.16 60.99,62.79 	"/>
	<path class="st0" d="M113.44,65.43L74.87,34.76l-0.18-0.14l-0.02,0c-1.19-0.82-2.75-0.79-3.91,0.06c-0.02,0.02-0.04,0.03-0.07,0.05
		c-2.4,1.72-5.82,5.26-9.21,9.68l0,0c-3.39,4.42-5.93,8.66-6.99,11.45l-0.03,0.08c-0.53,1.36-0.18,2.91,0.89,3.88l0,0.02l0.18,0.14
		L94.1,90.64"/>
	<path class="st1" d="M93.95,90.55c1.95,1.55,7.87-2.84,13.21-9.81c5.34-6.97,8.09-13.88,6.14-15.44
		c-1.95-1.55-7.87,2.84-13.21,9.81C94.74,82.08,92,88.99,93.95,90.55L93.95,90.55z M93.95,90.55"/>
	<path class="st2" d="M87.13,85.09c-1.95-1.56,0.81-8.45,6.16-15.41c5.35-6.96,11.27-11.33,13.22-9.78l4.26,3.4
		c-1.95-1.56-7.87,2.82-13.22,9.77c-5.35,6.95-8.11,13.85-6.16,15.41L87.13,85.09z M91.39,88.49"/>
	<path class="st4" d="M50.61,74.49l-0.04,6l23.82-27.87c0,0,1.58-1.74-1.32-5.25s-7.28-4.42-7.28-4.42l-2.34,0.98L50.61,74.49z"/>
	<path class="st0" d="M14.1,70.31l31.72-38l0.15-0.17l0.02,0c1-1.05,2.54-1.35,3.85-0.75c0.02,0.01,0.05,0.02,0.07,0.03
		c2.69,1.19,6.74,3.95,10.93,7.58l0,0c4.19,3.63,7.52,7.26,9.11,9.77l0.04,0.07c0.79,1.22,0.75,2.81-0.11,3.99l0,0.02l-0.15,0.17
		l-31.72,38"/>
	<path class="st1" d="M38.14,90.88c1.61-1.93-2.45-8.13-9.06-13.85c-6.61-5.72-13.27-8.8-14.87-6.88
		c-1.61,1.93,2.45,8.13,9.06,13.85C29.87,89.73,36.53,92.8,38.14,90.88L38.14,90.88z M38.14,90.88"/>
	<path class="st2" d="M40.24,88.33c1.6-1.93-2.46-8.11-9.07-13.82c-6.61-5.71-13.27-8.77-14.88-6.84l3.51-4.21
		c1.6-1.93,8.26,1.14,14.88,6.84c6.61,5.71,10.67,11.89,9.07,13.82L40.24,88.33z M40.24,88.33"/>
	<polygon class="st4" points="26.96,54.96 30.99,50.06 69.79,37.63 72.86,40.99 	"/>
	<path class="st0" d="M2.72,18.29L59.04,4.57l0.26-0.06l0.02,0.01c1.67-0.29,3.34,0.52,4.18,2.02c0.02,0.03,0.03,0.06,0.05,0.08
		c1.74,3.04,3.7,8.56,5.2,15l0,0c1.5,6.45,2.17,12.28,1.95,15.8l-0.01,0.1c-0.09,1.72-1.22,3.21-2.84,3.73l-0.01,0.02l-0.26,0.06
		L11.25,55.05"/>
	<path class="st1" d="M11.46,55.01c2.85-0.7,3.26-9.5,0.9-19.66C10.01,25.2,5.79,17.52,2.93,18.22c-2.85,0.7-3.26,9.5-0.9,19.66
		C4.39,48.04,8.61,55.71,11.46,55.01L11.46,55.01z M11.46,55.01"/>
	<path class="st2" d="M15.21,54.08c2.85-0.7,3.24-9.49,0.87-19.64c-2.37-10.15-6.61-17.8-9.46-17.1l6.23-1.53
		c2.85-0.7,7.09,6.96,9.46,17.11c2.37,10.14,1.98,18.94-0.87,19.64L15.21,54.08z M15.21,54.08"/>
	<g>
		<path class="st4" d="M65.34,5.08c0,0-8.37,12.26-12.45,24.88c-2.83,8.75,2.93,9.9,2.93,9.9s49.5,18.77,51.49,19.54
			c1.99,0.77,4.18-0.13,7.6-2.74L65.34,5.08z"/>
		<g>
			<path class="st0" d="M126.06,21.95L72.02,0.77l-0.25-0.1l-0.02,0.01c-1.62-0.51-3.38,0.06-4.4,1.44
				c-0.02,0.03-0.04,0.05-0.06,0.08c-2.12,2.78-4.79,7.98-7.12,14.17l0,0c-2.33,6.19-3.76,11.87-4.01,15.39l-0.01,0.1
				c-0.14,1.72,0.79,3.35,2.33,4.08l0.01,0.02l0.25,0.1l54.03,21.18"/>
			<path class="st1" d="M112.58,57.16c2.74,1.07,7.93-5.96,11.59-15.71c3.67-9.75,4.42-18.53,1.68-19.6
				c-2.74-1.07-7.93,5.96-11.59,15.71C110.6,47.31,109.84,56.09,112.58,57.16L112.58,57.16z M112.58,57.16"/>
			<path class="st2" d="M103.01,53.38c-2.74-1.08-1.97-9.84,1.71-19.57c3.68-9.74,8.88-16.75,11.62-15.68l5.98,2.35
				c-2.74-1.08-7.94,5.94-11.62,15.68c-3.68,9.73-4.45,18.5-1.71,19.58L103.01,53.38z M108.99,55.73"/>
		</g>
	</g>
	<path class="st2" d="M79.46,110.29c0,0,1.58,3.46,13.79,4.22c0,0-14.34,0.43-15.76,4.07s0.42,7.67,0.42,7.67s-3.36-5.31-10.04-5.03
		s-17.97,3.07-21.34,6.29c0,0,7.95-5.38,8.22-7.7c0.27-2.32-1.31-5.78-7.99-5.51c0,0,11.76-1.11,2.37-8.78c0,0,9.72,5.61,17.08,4.89
		c8.6-0.84,14.04-6.72,14.04-6.72S78.03,108.3,79.46,110.29z"/>
	<path class="st2" d="M115.15,75.03c0,0-3.21,11.66,9.97,13.75c0,0-10.74-1.1-11.13,5.23c-0.39,6.33,1.24,6.85,1.24,6.85
		s-4.35-3.66-6.6-0.84s-4.63,7.76-4.63,7.76s2.87-6.17,1.5-10.92c-1.37-4.74-3.44-4.87-3.44-4.87s5.02-0.53,8.59-4.54
		C114.22,83.44,115.15,75.03,115.15,75.03z"/>
	<path class="st2" d="M23.87,90.98c0,0,6.73,6.83-1.59,13.46c0,0,7.01-4.98,9.73-0.74s1.79,5.24,1.79,5.24s1.6-4.25,4.25-3.18
		s6.21,3.56,6.21,3.56s-4.37-3.15-5.26-6.99s0.5-4.74,0.5-4.74s-3.68,1.6-7.71,0.22S23.87,90.98,23.87,90.98z"/>
</g>
</svg>
