<?xml version="1.0" standalone="no"?><!DOCTYPE svg PUBLIC "-//W3C//DTD SVG 1.1//EN" "http://www.w3.org/Graphics/SVG/1.1/DTD/svg11.dtd"><svg t="1587625321723" class="icon" viewBox="0 0 1024 1024" version="1.1" xmlns="http://www.w3.org/2000/svg" p-id="12489" width="128" height="128" xmlns:xlink="http://www.w3.org/1999/xlink"><defs><style type="text/css">@font-face { font-family: element-icons; src: url("chrome-extension://moombeodfomdpjnpocobemoiaemednkg/fonts/element-icons.woff") format("woff"), url("chrome-extension://moombeodfomdpjnpocobemoiaemednkg/fonts/element-icons.ttf ") format("truetype"); }
</style></defs><path d="M947.2 902.4 556.8 512l390.4-390.4c12.8-12.8 12.8-32 0-44.8-12.8-12.8-32-12.8-44.8 0L512 460.8 134.4 89.6c-12.8-12.8-32-12.8-44.8 0-12.8 12.8-12.8 32 0 44.8L467.2 512l-390.4 390.4c-12.8 12.8-12.8 32 0 44.8C83.2 953.6 89.6 960 96 960c6.4 0 19.2 0 25.6-6.4L512 556.8l390.4 390.4c6.4 6.4 12.8 6.4 25.6 6.4s19.2 0 25.6-6.4C960 934.4 960 915.2 947.2 902.4z" p-id="12490" fill="#cccccc"></path></svg>