<svg xmlns="http://www.w3.org/2000/svg" viewBox="0 0 160 160"><defs><style>.cls-1{fill:#01c49d;}.cls-2{fill:#2dd69d;}.cls-3,.cls-7{fill:#162634;}.cls-4{fill:#213340;}.cls-4,.cls-5,.cls-6,.cls-7,.cls-8,.cls-9{fill-rule:evenodd;}.cls-5{fill:#ffecdc;}.cls-6{fill:#ffe3d1;}.cls-8{fill:#111;}.cls-9{fill:#ce3333;}.cls-10{fill:#ff7465;}.cls-11{fill:none;}</style></defs><title>客套客服-透明背景</title><g id="图层_2" data-name="图层 2"><g id="客服"><path class="cls-1" d="M57.92,160H104c-5.92-8.53-15.18-13.95-25.48-14-1.53,0-.82-.1-1.4,0S63.55,151.27,57.92,160Z"/><path class="cls-2" d="M61.35,160A39.27,39.27,0,0,1,79,146l-.93.15c-.45.08-.9.17-1.34.27l-.56.12-.89.23-.56.15c-.28.07-.56.16-.84.25l-.59.18-.78.28-.63.23-.73.29-.66.27-.69.3-.68.33-.64.31-.71.37-.58.32-.75.44-.52.31c-.28.17-.55.35-.82.53l-.42.27c-.37.26-.73.51-1.09.78l-.12.08c-.39.29-.78.6-1.16.9l-.42.35-.71.6-.5.46-.58.53-.54.53-.5.51-.55.59c-.15.15-.29.31-.44.47l-.57.66-.36.43-.59.73-.29.38-.3.4Z"/><path class="cls-3" d="M102,38.55c0-.18,0-.35,0-.53a22,22,0,0,0-44,0c0,.18,0,.36,0,.54A40,40,0,0,0,32,76V92a40,40,0,0,0,40,40H88a40,40,0,0,0,40-40V76A40,40,0,0,0,102,38.55Z"/><path id="发髻高光" class="cls-4" d="M79,38H58a22,22,0,0,1,21.24-22A11,11,0,0,1,79,38Z"/><path id="脸" class="cls-5" d="M119,119.58a37,37,0,0,1-33,22.36v6a6,6,0,0,1-12,0v-6A37,37,0,0,1,40.38,118c-3.53-2.14-8.38-5.84-8.38-10V98a6,6,0,0,1,6-6V86A32,32,0,0,1,70,54H90a32,32,0,0,1,32,32v6a6,6,0,0,1,6,6v10A12,12,0,0,1,119,119.58Z"/><path id="脖影" class="cls-6" d="M119,119.61A37,37,0,0,1,86,142v1a3,3,0,0,1-3,3H77a3,3,0,0,1-3-3v-1h5a37,37,0,0,0,37-37h0V86A32,32,0,0,0,84,54h6a32,32,0,0,1,32,32v6a6,6,0,0,1,6,6v10A12,12,0,0,1,119,119.61Z"/><path id="刘海" class="cls-7" d="M88,36a40,40,0,0,1,40,40V93.3C114.92,88.53,104.65,71.16,100,58,92.61,74.09,60,99.1,32,90.13V76A40,40,0,0,1,72,36Z"/><path class="cls-7" d="M118.55,87.85S121,108.33,120,113.16c0,0,4.3-18.91,2.48-23.61S118.55,87.85,118.55,87.85Z"/><path class="cls-7" d="M41.45,87.85S39,108.33,40,113.16c0,0-4.3-18.91-2.48-23.61S41.45,87.85,41.45,87.85Z"/><path id="光" class="cls-4" d="M32,86.13V76A40,40,0,0,1,72,36H88c1.33,0,2.65.07,4,.2,0,.6,0,1.21,0,1.8C93.87,62.4,66.46,87.09,32,86.13Z"/><path class="cls-8" d="M99,106a7,7,0,0,1-6.54-9.44,3,3,0,1,0,5.11-3.1,3,3,0,0,0-1-1,7,7,0,0,1,4.92,13.11A6.79,6.79,0,0,1,99,106Z"/><path class="cls-8" d="M61,106a7,7,0,0,1-6.54-9.44,3,3,0,1,0,5.11-3.1,3,3,0,0,0-1-1A7,7,0,1,1,61,106Z"/><path class="cls-9" d="M89.82,116c.27.91,1.57,14-9.82,14s-10.09-13.09-9.82-14Z"/><path class="cls-10" d="M80,130c3.84,0,6.23-1.49,7.71-3.5-1.48-2-3.87-3.5-7.71-3.5s-6.23,1.49-7.71,3.5C73.77,128.51,76.16,130,80,130Z"/><rect class="cls-11" width="160" height="160"/></g></g></svg>