<svg xmlns="http://www.w3.org/2000/svg" xmlns:xlink="http://www.w3.org/1999/xlink" viewBox="0 0 160 160"><defs><style>.cls-1{fill:#fff;}.cls-2{clip-path:url(#clip-path);}.cls-3{fill:#01c49d;}.cls-4{fill:#2dd69d;}.cls-5,.cls-9{fill:#162634;}.cls-6{fill:#213340;}.cls-10,.cls-11,.cls-6,.cls-7,.cls-8,.cls-9{fill-rule:evenodd;}.cls-7{fill:#ffecdc;}.cls-8{fill:#ffe3d1;}.cls-10{fill:#111;}.cls-11{fill:#ce3333;}.cls-12{fill:#ff7465;}</style><clipPath id="clip-path"><rect class="cls-1" width="160" height="160"/></clipPath></defs><title>客套客服头像</title><g id="图层_2" data-name="图层 2"><g id="客服"><rect class="cls-1" width="160" height="160"/><g class="cls-2"><path class="cls-3" d="M62.27,149.66l.64-.31Z"/><path class="cls-3" d="M63.61,149l.69-.3Z"/><path class="cls-3" d="M61,150.33l.59-.31Z"/><path class="cls-3" d="M65,148.48l.75-.28Z"/><path class="cls-3" d="M70.63,146.8l1.37-.26Z"/><path class="cls-3" d="M69.16,147.14l.91-.22Z"/><path class="cls-3" d="M50.15,159.24c.19-.24.39-.47.6-.71C50.54,158.77,50.34,159,50.15,159.24Z"/><path class="cls-3" d="M67.75,147.53l.85-.25Z"/><path class="cls-3" d="M59.66,151.06l.53-.3Z"/><path class="cls-3" d="M53.21,156l.54-.51Z"/><path class="cls-3" d="M52.14,157l.56-.57Z"/><path class="cls-3" d="M51.12,158.11c.19-.21.38-.43.58-.64C51.5,157.68,51.31,157.9,51.12,158.11Z"/><path class="cls-3" d="M55.57,153.89l.42-.34Z"/><path class="cls-3" d="M54.34,154.92l.51-.45Z"/><path class="cls-3" d="M57.18,152.67l.11-.08Z"/><path class="cls-3" d="M58.4,151.84l.43-.27Z"/><path class="cls-3" d="M66.35,148c.26-.1.53-.19.8-.27C66.88,147.79,66.61,147.88,66.35,148Z"/><path class="cls-3" d="M55,160h51.48A36,36,0,0,0,78,146a36.86,36.86,0,0,0-5.06.36A39.81,39.81,0,0,0,55,160Z"/><path class="cls-3" d="M49.85,159.61l-.31.39h0Z"/><path class="cls-4" d="M57.29,152.59l1.11-.75Z"/><path class="cls-4" d="M62.91,149.35l.7-.31Z"/><path class="cls-4" d="M58.83,151.57l.83-.51Z"/><path class="cls-4" d="M56,153.55c.39-.3.79-.59,1.19-.88C56.78,153,56.38,153.25,56,153.55Z"/><path class="cls-4" d="M60.19,150.76l.76-.43Z"/><path class="cls-4" d="M64.3,148.74l.67-.26Z"/><path class="cls-4" d="M61.54,150l.73-.36Z"/><path class="cls-4" d="M51.7,157.47l.44-.46Z"/><path class="cls-4" d="M54.85,154.47l.72-.58Z"/><path class="cls-4" d="M49.85,159.61l.3-.37Z"/><path class="cls-4" d="M50.75,158.53l.37-.42Z"/><path class="cls-4" d="M53.75,155.44l.59-.52Z"/><path class="cls-4" d="M52.7,156.44l.51-.49Z"/><path class="cls-4" d="M73,146.39l-1,.15.94-.15Z"/><path class="cls-4" d="M70.07,146.92l.56-.12Z"/><path class="cls-4" d="M68.6,147.28l.56-.14Z"/><path class="cls-4" d="M67.15,147.71l.6-.18Z"/><path class="cls-4" d="M65.72,148.2l.63-.22Z"/><path class="cls-4" d="M55,160a39.81,39.81,0,0,1,18-13.61l-.94.15-1.37.26-.56.12-.91.22-.56.14-.85.25-.6.18c-.27.08-.54.17-.8.27l-.63.22-.75.28-.67.26-.69.3-.7.31-.64.31-.73.36-.59.31-.76.43-.53.3-.83.51-.43.27-1.11.75-.11.08c-.4.29-.8.58-1.19.88l-.42.34-.72.58-.51.45-.59.52-.54.51-.51.49-.56.57-.44.46c-.2.21-.39.43-.58.64l-.37.42c-.21.24-.41.47-.6.71l-.3.37-.3.39Z"/><path class="cls-5" d="M102,38.55c0-.18,0-.35,0-.53a22,22,0,0,0-44,0c0,.18,0,.36,0,.54A40,40,0,0,0,32,76V92a40,40,0,0,0,40,40H88a40,40,0,0,0,40-40V76A40,40,0,0,0,102,38.55Z"/><path id="发髻高光" class="cls-6" d="M79,38H58a22,22,0,0,1,21.24-22A11,11,0,0,1,79,38Z"/><path id="脸" class="cls-7" d="M119,119.64A37,37,0,0,1,86,142v6a6,6,0,0,1-12,0v-6a37,37,0,0,1-33.62-23.92C36.85,116,32,112.25,32,108V98a6,6,0,0,1,6-6V86A32,32,0,0,1,70,54H90a32,32,0,0,1,32,32v6a6,6,0,0,1,6,6v10A12,12,0,0,1,119,119.64Z"/><path id="脖影" class="cls-8" d="M119,119.64A37,37,0,0,1,86,142v1a3,3,0,0,1-3,3H77a3,3,0,0,1-3-3v-1h5a37,37,0,0,0,37-37h0V86A32,32,0,0,0,84,54h6a32,32,0,0,1,32,32v6a6,6,0,0,1,6,6v10A12,12,0,0,1,119,119.64Z"/><path id="刘海" class="cls-9" d="M88,36a40,40,0,0,1,40,40V93.3C114.92,88.53,104.65,71.16,100,58,92.61,74.09,60,99.1,32,90.13V76A40,40,0,0,1,72,36Z"/><path class="cls-9" d="M118.55,87.85S121,108.33,120,113.16c0,0,4.3-18.91,2.48-23.61S118.55,87.85,118.55,87.85Z"/><path class="cls-9" d="M41.45,87.85S39,108.33,40,113.16c0,0-4.3-18.91-2.48-23.61S41.45,87.85,41.45,87.85Z"/><path id="光" class="cls-6" d="M32,86.13V76A40,40,0,0,1,72,36H88c1.33,0,2.65.07,4,.2,0,.6,0,1.21,0,1.8C93.87,62.4,66.46,87.09,32,86.13Z"/><path class="cls-10" d="M99,106a7,7,0,0,1-6.55-9.44,3,3,0,0,0,5.12-3.1,3,3,0,0,0-1-1,7,7,0,0,1,4.92,13.11A6.76,6.76,0,0,1,99,106Z"/><path class="cls-10" d="M61,106a7,7,0,0,1-6.55-9.44,3,3,0,0,0,5.12-3.1,3,3,0,0,0-1-1,7,7,0,0,1,4.92,13.11A6.76,6.76,0,0,1,61,106Z"/><path class="cls-11" d="M89.82,116c.27.85,1.57,13.15-9.82,13.15S69.91,116.85,70.18,116Z"/><path class="cls-12" d="M80,129.15c3.84,0,6.23-1.4,7.71-3.29-1.48-1.88-3.87-3.28-7.71-3.28s-6.23,1.4-7.71,3.28C73.77,127.75,76.16,129.15,80,129.15Z"/></g></g></g></svg>