<svg t="1587527353682" class="icon" viewBox="0 0 1024 1024" version="1.1" xmlns="http://www.w3.org/2000/svg" p-id="24870" xmlns:xlink="http://www.w3.org/1999/xlink" width="200" height="200"><defs><style type="text/css"></style></defs><path d="M0 320h1024v256H0z" fill="#FFFFFF" p-id="24871"></path><path d="M896 832H533.056l-103.744 103.68a64 64 0 0 1-90.56 0L235.008 832H128a128 128 0 0 1-128-128V192a128 128 0 0 1 128-128h768a128 128 0 0 1 128 128v512a128 128 0 0 1-128 128zM256 384a64 64 0 1 0 64 64 64 64 0 0 0-64-64z m256 0a64 64 0 1 0 64 64 64 64 0 0 0-64-64z m256 0a64 64 0 1 0 64 64 64 64 0 0 0-64-64z" fill="#F7A33F" p-id="24872"></path></svg>