<svg 
 xmlns="http://www.w3.org/2000/svg"
 xmlns:xlink="http://www.w3.org/1999/xlink"
 width="106px" height="28px">
<path fill-rule="evenodd"  fill="rgb(51, 51, 51)"
 d="M69.697,19.698 L49.335,19.698 L49.335,22.298 L67.904,22.298 L67.904,25.347 L49.335,25.347 L49.335,27.997 L48.440,27.997 L48.440,25.397 L48.440,25.397 L48.440,22.348 L48.440,22.348 L48.440,19.748 L44.905,19.748 L44.905,27.997 L44.805,27.997 L71.439,27.997 L71.439,21.448 C71.439,20.448 70.643,19.648 69.697,19.698 ZM58.247,15.748 L68.154,13.549 L68.154,13.599 L69.697,13.248 L69.697,12.198 L69.697,12.198 L69.697,8.249 C69.697,7.299 68.900,6.499 67.904,6.499 L67.904,6.499 L46.647,6.499 L46.647,11.748 L50.182,11.748 L50.182,9.149 L66.112,9.149 L66.112,10.799 L58.098,12.548 L54.613,11.799 L47.991,13.549 L50.680,14.149 L44.009,15.599 L44.009,18.798 L58.247,15.748 L58.247,15.748 ZM47.543,4.399 L47.543,4.399 L47.543,1.750 L44.009,1.750 L44.009,5.699 L47.543,5.699 L47.543,4.399 ZM70.543,1.750 L59.939,1.750 C59.939,0.800 59.143,0.000 58.147,0.000 L58.147,0.000 L55.957,0.000 L55.957,1.750 L48.440,1.750 L48.440,4.350 L68.800,4.350 L68.800,5.649 L72.335,5.649 L72.335,3.500 C72.335,2.550 71.539,1.750 70.543,1.750 L70.543,1.750 ZM60.287,16.198 L72.335,18.798 L72.335,15.599 L67.656,14.598 L60.287,16.198 ZM81.197,8.649 L84.234,6.149 L84.085,6.149 L86.225,4.399 L86.324,4.399 L89.511,1.799 L89.461,1.799 L91.602,0.050 L87.120,0.050 L84.880,1.799 L77.612,1.799 L77.612,4.399 L81.546,4.399 L77.612,7.448 L77.612,11.398 L81.147,8.499 L81.197,8.649 L81.197,8.649 ZM105.989,1.750 L90.904,1.750 L87.718,4.350 L97.376,4.350 L99.517,6.099 L85.578,6.099 L81.147,9.749 L81.147,19.198 L77.612,19.198 L77.612,21.798 L82.192,21.798 L79.405,23.998 L79.405,27.997 L99.766,27.997 L99.766,25.397 L82.640,25.397 L86.922,21.898 L105.938,21.898 L105.938,20.997 C105.938,20.048 105.142,19.248 104.146,19.248 L104.146,19.248 L84.682,19.248 L84.682,17.499 L102.404,17.499 L102.404,14.898 L84.682,14.898 L84.682,13.148 L102.404,13.148 L102.404,10.499 L84.682,10.499 L84.682,8.749 L102.753,8.749 L105.989,11.348 L105.989,7.399 L102.055,4.350 L105.989,4.350 L105.989,3.500 C105.989,2.550 105.192,1.750 104.197,1.750 L104.197,1.750 L105.989,1.750 L105.989,1.750 ZM102.454,24.498 L100.662,24.498 L100.662,27.997 L104.197,27.997 L104.197,26.247 C104.197,25.247 103.400,24.498 102.454,24.498 Z"/>
<path fill-rule="evenodd"  fill="rgb(61, 203, 174)"
 d="M27.998,14.998 L27.976,19.010 L19.998,18.998 L19.998,14.998 L15.998,14.998 L15.998,6.999 L19.998,6.999 L19.998,2.998 L27.998,2.998 L27.998,6.999 L31.997,6.999 L31.997,14.998 L27.998,14.998 ZM27.998,27.998 L19.998,27.998 L19.998,20.999 L27.998,20.999 L27.998,27.998 Z"/>
<path fill-rule="evenodd"  fill="rgb(51, 51, 51)"
 d="M-0.002,-0.002 L7.997,-0.002 C7.997,7.603 11.038,6.999 13.998,6.999 L13.998,14.998 C12.680,15.565 7.997,18.602 7.997,27.998 L-0.002,27.998 C-0.002,20.730 2.337,15.268 4.998,11.998 C1.150,8.886 -0.002,4.646 -0.002,-0.002 Z"/>
</svg>