<svg id="呼叫中心" xmlns="http://www.w3.org/2000/svg" width="40" height="39.969" viewBox="0 0 40 39.969">
  <metadata><?xpacket begin="﻿" id="W5M0MpCehiHzreSzNTczkc9d"?>
<x:xmpmeta xmlns:x="adobe:ns:meta/" x:xmptk="Adobe XMP Core 5.6-c142 79.160924, 2017/07/13-01:06:39        ">
   <rdf:RDF xmlns:rdf="http://www.w3.org/1999/02/22-rdf-syntax-ns#">
      <rdf:Description rdf:about=""/>
   </rdf:RDF>
</x:xmpmeta>
                                                                                                    
                                                                                                    
                                                                                                    
                                                                                                    
                                                                                                    
                                                                                                    
                                                                                                    
                                                                                                    
                                                                                                    
                                                                                                    
                                                                                                    
                                                                                                    
                                                                                                    
                                                                                                    
                                                                                                    
                                                                                                    
                                                                                                    
                                                                                                    
                                                                                                    
                                                                                                    
                           
<?xpacket end="w"?></metadata>
<defs>
    <style>
      .cls-1 {
        fill: #fff;
      }

      .cls-1, .cls-2, .cls-3, .cls-4 {
        fill-rule: evenodd;
      }

      .cls-2 {
        fill: #239fff;
      }

      .cls-2, .cls-3, .cls-4 {
        opacity: 0.6;
      }

      .cls-3 {
        fill: #3d62ff;
      }

      .cls-4 {
        fill: #5f2eeb;
      }
    </style>
  </defs>
  <path id="矩形_9" data-name="矩形 9" class="cls-1" d="M74.453,393.182l2.578-5.884a11.621,11.621,0,0,1,16.239-5.915l5.541,2.928a13.868,13.868,0,0,1,5.926,17.626l-2.578,5.885a11.621,11.621,0,0,1-16.238,5.914l-5.541-2.928A13.869,13.869,0,0,1,74.453,393.182Zm26.586-1.149,3.262,5.8a12.686,12.686,0,0,1-5.215,17.651l-5.87,3.023a13.856,13.856,0,0,1-18.264-5.555l-3.262-5.8A12.688,12.688,0,0,1,76.9,389.5l5.87-3.024A13.858,13.858,0,0,1,101.039,392.033Zm-7.01-1.082,2.7,5.729c2.978,6.328.6,13.989-5.3,17.111l-5.349,2.827c-5.908,3.124-13.112.525-16.091-5.8l-2.7-5.729c-2.978-6.328-.6-13.99,5.3-17.112l5.349-2.827C83.847,382.024,91.05,384.622,94.029,390.951Z" transform="translate(-66 -380)"/>
  <path id="矩形_9-2" data-name="矩形 9" class="cls-2" d="M74.453,393.182l2.578-5.884a11.621,11.621,0,0,1,16.239-5.915l5.541,2.928a13.868,13.868,0,0,1,5.926,17.626l-2.578,5.885a11.621,11.621,0,0,1-16.238,5.914l-5.541-2.928A13.869,13.869,0,0,1,74.453,393.182Z" transform="translate(-66 -380)"/>
  <path id="矩形_9-3" data-name="矩形 9" class="cls-3" d="M94.029,390.951l2.7,5.729c2.978,6.328.6,13.989-5.3,17.111l-5.349,2.827c-5.908,3.124-13.112.525-16.091-5.8l-2.7-5.729c-2.978-6.328-.6-13.99,5.3-17.112l5.349-2.827C83.847,382.024,91.05,384.622,94.029,390.951Z" transform="translate(-66 -380)"/>
  <path id="矩形_9-4" data-name="矩形 9" class="cls-4" d="M101.039,392.033l3.262,5.8a12.686,12.686,0,0,1-5.215,17.651l-5.87,3.023a13.856,13.856,0,0,1-18.264-5.555l-3.262-5.8A12.688,12.688,0,0,1,76.9,389.5l5.87-3.024A13.858,13.858,0,0,1,101.039,392.033Z" transform="translate(-66 -380)"/>
  <path id="通话B" class="cls-1" d="M89.921,407A10.919,10.919,0,0,1,79,396.085a3.08,3.08,0,1,1,3.589,3.027,4.727,4.727,0,0,0,4.3,4.3A3.076,3.076,0,1,1,89.921,407h0Zm0,0" transform="translate(-66 -380)"/>
</svg>
